<svg viewBox="0 0 4000 1100" version="1.1" xmlns="http://www.w3.org/2000/svg" data-name="Ebene 2 Kopie" id="Ebene_2_Kopie">
  <defs>
    <style>
      .cls-1 {
        fill: #0065ff;
      }

      .cls-1, .cls-2 {
        stroke-width: 0px;
      }

      .cls-2 {
        fill: #ffa800;
      }
    </style>
  </defs>
  <g>
    <path d="M463.3,517.8c-27.8,0-55.1-5.3-81.9-15.9-26.8-10.6-50.6-25.3-71.5-44.2l41.2-52.1c20.2,17.9,39.6,30.9,58.3,39,18.7,8.1,38.5,12.2,59.3,12.2s27.1-1.7,37.7-5.2c10.6-3.5,18.8-8.5,24.6-15.1,5.8-6.6,8.7-14.4,8.7-23.3s-4.3-21.2-12.9-27.8c-8.6-6.6-23.3-11.6-44.2-14.9l-69-11.9c-29.5-5.3-52-15.8-67.5-31.5-15.6-15.7-23.3-36.2-23.3-61.3s5.6-40.1,16.9-55.9c11.2-15.7,27.1-27.8,47.4-36.2s44.6-12.7,72.7-12.7,50.6,4.2,76.2,12.7c25.6,8.4,48.1,20.4,67.3,36l-38.7,53.1c-36.4-27.8-73-41.7-109.7-41.7s-24.2,1.7-33.8,5c-9.6,3.3-17,7.9-22.1,13.7-5.1,5.8-7.7,12.5-7.7,20.1,0,11.3,3.9,19.7,11.7,25.3,7.8,5.6,20.4,10.1,38,13.4l65.5,10.4c34.8,5.6,60.8,16.6,78.2,33,17.4,16.4,26.1,38,26.1,64.8s-6,42-18.1,58.6c-12.1,16.6-29.1,29.5-51.1,38.7-22,9.3-48.1,13.9-78.2,13.9Z" class="cls-1"></path>
    <path d="M774.6,517.8c-25.8,0-49.2-6-70-17.9s-37.4-28.1-49.6-48.4c-12.2-20.4-18.4-42.9-18.4-67.8s6.1-47.9,18.4-68.3c12.2-20.4,28.8-36.4,49.6-48.2,20.9-11.7,44.2-17.6,70-17.6s49.2,5.9,70,17.6c20.9,11.8,37.4,27.8,49.6,48.2,12.2,20.4,18.4,43.1,18.4,68.3s-6,47.4-18.1,67.8c-12.1,20.4-28.5,36.5-49.4,48.4s-44.4,17.9-70.5,17.9ZM774.6,458.8c13.6,0,25.8-3.4,36.7-10.2,10.9-6.8,19.5-15.8,25.8-27.1,6.3-11.2,9.4-24,9.4-38.2s-3.2-26.5-9.7-37.7c-6.5-11.2-15.1-20.2-25.8-26.8-10.8-6.6-22.8-9.9-36-9.9s-25.8,3.3-36.7,9.9c-10.9,6.6-19.5,15.6-25.8,26.8-6.3,11.3-9.4,23.8-9.4,37.7s3.1,27,9.4,38.2c6.3,11.3,14.8,20.3,25.6,27.1,10.8,6.8,22.9,10.2,36.5,10.2Z" class="cls-1"></path>
    <path d="M949.3,512.9V165.3l68-11.4v359h-68Z" class="cls-1"></path>
    <path d="M1147.4,517.3c-18.2,0-34.4-3.4-48.7-10.2-14.2-6.8-25.3-16.1-33.3-28.1s-11.9-25.6-11.9-41.2c0-24.8,9.3-44.1,27.8-57.8,18.5-13.7,44.4-20.6,77.5-20.6s43.7,3.5,63.6,10.4v-18.9c0-14.9-4.6-26.1-13.9-33.8-9.3-7.6-22.8-11.4-40.7-11.4s-22.3,1.7-35.3,5.2c-12.9,3.5-27.5,8.9-43.7,16.1l-24.3-50.6c20.5-8.9,40-15.7,58.6-20.4,18.5-4.6,37.1-7,55.6-7,35.4,0,62.7,8.4,81.9,25.1,19.2,16.7,28.8,40.3,28.8,70.7v167.8h-67v-18.4c-10.6,7.9-22,13.7-34.3,17.4-12.2,3.6-25.8,5.5-40.7,5.5ZM1118.1,436.4c0,9.9,4.3,17.8,12.9,23.6,8.6,5.8,20,8.7,34.3,8.7s21.6-1.3,31-4c9.4-2.6,18.1-7,26.1-12.9v-37.7c-8.3-3.6-16.9-6.2-25.8-7.7-8.9-1.5-18.5-2.2-28.8-2.2-15.6,0-27.7,2.8-36.5,8.4-8.8,5.6-13.2,13.6-13.2,23.8Z" class="cls-1"></path>
    <path d="M1335.6,512.9V254.2h68.5v28.8c7.9-11.2,17.8-19.9,29.5-25.8,11.7-6,24.9-8.9,39.5-8.9,12.9.3,22.3,2.2,28.3,5.5v60.1c-5.3-2.3-10.8-4.1-16.6-5.5-5.8-1.3-11.8-2-18.1-2-13.2,0-25.3,3.4-36.2,10.2-10.9,6.8-19.7,16.3-26.3,28.5v167.8h-68.5Z" class="cls-1"></path>
    <path d="M1533.7,512.9V165.3l68-14.9v125.1c19.9-17.5,44.2-26.3,73-26.3s37.5,4.4,52.9,13.2c15.4,8.8,27.4,20.9,36,36.2,8.6,15.4,12.9,33.2,12.9,53.4v160.9h-67.5v-150.4c0-16.9-4.9-30.2-14.6-40-9.8-9.8-22.9-14.6-39.5-14.6s-21.8,2.2-30.8,6.7c-8.9,4.5-16.4,10.8-22.3,19.1v179.2h-68Z" class="cls-1"></path>
    <path d="M1905,517.3c-18.2,0-34.4-3.4-48.7-10.2-14.2-6.8-25.3-16.1-33.3-28.1s-11.9-25.6-11.9-41.2c0-24.8,9.3-44.1,27.8-57.8,18.5-13.7,44.4-20.6,77.5-20.6s43.7,3.5,63.6,10.4v-18.9c0-14.9-4.6-26.1-13.9-33.8-9.3-7.6-22.8-11.4-40.7-11.4s-22.3,1.7-35.3,5.2c-12.9,3.5-27.5,8.9-43.7,16.1l-24.3-50.6c20.5-8.9,40-15.7,58.6-20.4,18.5-4.6,37.1-7,55.6-7,35.4,0,62.7,8.4,81.9,25.1,19.2,16.7,28.8,40.3,28.8,70.7v167.8h-67v-18.4c-10.6,7.9-22,13.7-34.3,17.4-12.2,3.6-25.8,5.5-40.7,5.5ZM1875.7,436.4c0,9.9,4.3,17.8,12.9,23.6,8.6,5.8,20,8.7,34.3,8.7s21.6-1.3,31-4c9.4-2.6,18.1-7,26.1-12.9v-37.7c-8.3-3.6-16.9-6.2-25.8-7.7-8.9-1.5-18.5-2.2-28.8-2.2-15.6,0-27.7,2.8-36.5,8.4-8.8,5.6-13.2,13.6-13.2,23.8Z" class="cls-1"></path>
    <path d="M2093.7,512.9V254.2h68v21.3c19.9-17.5,44.2-26.3,73-26.3s37.5,4.4,52.9,13.2c15.4,8.8,27.4,20.9,36,36.2,8.6,15.4,12.9,33.2,12.9,53.4v160.9h-67.5v-150.4c0-16.9-4.9-30.2-14.6-40-9.8-9.8-22.9-14.6-39.5-14.6s-21.8,2.2-30.8,6.7c-8.9,4.5-16.4,10.8-22.3,19.1v179.2h-68Z" class="cls-1"></path>
    <path d="M2502.8,516.3c-24.5,0-46.7-6-66.5-17.9-19.9-11.9-35.7-27.9-47.4-47.9-11.8-20-17.6-42.4-17.6-67.3s5.9-46.8,17.6-67c11.7-20.2,27.7-36.2,47.9-47.9,20.2-11.7,42.9-17.6,68-17.6s25.2,1.7,37,5.2c11.7,3.5,22.9,8.5,33.5,15.1v-105.8l68-11.4v359h-67v-21.3c-21.2,16.6-45.7,24.8-73.5,24.8ZM2513.7,458.3c12.2,0,23.7-2.1,34.3-6.5,10.6-4.3,19.7-10.4,27.3-18.4v-100.8c-7.6-7.6-16.7-13.5-27.3-17.6-10.6-4.1-22-6.2-34.3-6.2s-27.1,3.2-38.5,9.7c-11.4,6.5-20.4,15.3-27.1,26.6-6.6,11.3-9.9,23.8-9.9,37.7s3.4,27.5,10.2,38.7c6.8,11.3,15.8,20.2,27.1,26.8,11.2,6.6,24,9.9,38.2,9.9Z" class="cls-1"></path>
    <path d="M2818.1,517.8c-25.8,0-49.2-6-70.3-18.1-21-12.1-37.7-28.1-49.9-48.2-12.2-20-18.4-42.6-18.4-67.8s5.9-47.4,17.6-67.8c11.7-20.4,27.7-36.5,47.9-48.4,20.2-11.9,42.5-17.9,67-17.9s46.9,6,66.3,18.1c19.4,12.1,34.6,28.5,45.7,49.4,11.1,20.9,16.6,44.7,16.6,71.5v17.9h-191.6c3,10.3,7.9,19.5,14.9,27.8,7,8.3,15.4,14.6,25.3,19.1,9.9,4.5,20.7,6.7,32.3,6.7s21.8-1.7,31.8-5.2,18.4-8.5,25.3-15.1l44.7,40.7c-15.9,12.9-32.2,22.3-48.9,28.3-16.7,6-35.5,8.9-56.4,8.9ZM2748.1,358h126.1c-2.7-10.3-7-19.3-13.2-27.1-6.1-7.8-13.5-13.8-22.1-18.1-8.6-4.3-17.9-6.5-27.8-6.5s-20.2,2.1-28.8,6.2c-8.6,4.1-15.8,10.1-21.6,17.9-5.8,7.8-10,17-12.7,27.6Z" class="cls-1"></path>
    <path d="M2977.4,512.9V165.3l68-11.4v359h-68Z" class="cls-1"></path>
  </g>
  <g>
    <path d="M3367.2,512.9h-247.8v-52.1l89-89.9c26.3-27,43.6-45.7,51.6-56.1,8.1-10.4,13.9-20.1,17.5-29,3.6-8.9,5.3-18.1,5.3-27.6,0-14.2-3.9-24.8-11.8-31.8-7.8-6.9-18.3-10.4-31.4-10.4s-27.1,3.2-40,9.5c-12.9,6.3-26.4,15.3-40.5,26.9l-40.7-48.2c17.5-14.9,31.9-25.4,43.4-31.5,11.5-6.1,24-10.9,37.6-14.2,13.6-3.3,28.8-5,45.6-5s41.7,4,58.7,12.1c17,8.1,30.1,19.4,39.5,33.9,9.4,14.5,14.1,31.2,14.1,49.9s-2.9,31.6-8.6,45.9c-5.7,14.3-14.6,29-26.7,44-12,15-33.3,36.4-63.6,64.2l-45.6,42.9v3.4h154.4v63Z" class="cls-1"></path>
    <path d="M3658.6,439.4h-42.7v73.5h-73.2v-73.5h-151.3v-52.1l155.4-228.9h69.1v222.8h42.7v58.2ZM3542.7,381.2v-60.1c0-10,.4-24.6,1.2-43.6.8-19.1,1.5-30.1,1.9-33.2h-1.9c-6,13.3-13.2,26.2-21.6,38.8l-65,98.2h85.3Z" class="cls-1"></path>
  </g>
  <polygon points="242 624.1 273.7 771.2 3758 632.2 3756.1 624.1 242 624.1" class="cls-1"></polygon>
  <path d="M2658.3,942.3c-10.8,0-20.5-2.7-29.3-8.1-8.5-5.4-14.7-11.6-17.8-18.5l-.8,23.6h-30.1v-213.5h30.9v82.2l-1.5,22.8c3.1-7.7,9.7-14.3,19.3-19.7,9.7-5.4,20.1-8.1,31.3-8.1s24.7,3.1,34.4,8.9c9.7,5.8,17.4,14.3,22.4,24.7,5.4,10.4,7.7,22.8,7.7,36.7s-3.1,26.6-9.3,37.1c-6.2,10.4-14.3,18.5-24.3,23.9-9.7,5.4-20.9,8.1-32.8,8.1ZM2653.3,916.4c12.4,0,22.4-3.9,29-12,7-8.1,10-18.5,10-31.3s-3.5-23.6-10-31.7c-6.6-8.1-16.2-12-29-12s-20.5,3.9-27.8,11.6c-7.7,7.7-11.2,17.8-11.2,30.1v1.9c0,8.5,1.9,15.8,5.4,22.4,3.5,6.6,8.5,11.6,14.3,15.4,5.4,3.5,12,5.4,19.3,5.4Z" class="cls-2"></path>
  <path d="M2770.8,943.5l-55.2-137.5h35.5l28.6,84.9,6.6,20.5,6.2-20.5,30.1-84.9h34.4l-81.9,206.6h-32.8l28.6-69.1Z" class="cls-2"></path>
  <g>
    <path d="M2966.8,862.8h0c-6.5-2.4-8.2-3-8.7-3.1-7.8-2.7-13.5-5.2-16.9-7.5-3.1-2-4.5-4.9-4.5-8.8s0-10.3,18.1-10.3,12.1.9,17.2,2.6c5,1.7,8.7,3.6,10.9,5.9l1.7,1.7,12.5-27.6-1.2-.8c-4.1-2.7-9.9-4.9-17.4-6.7-7.4-1.7-15.1-2.6-22.8-2.6-15.7,0-28.5,3.4-38,10.2-9.6,6.9-14.5,16.6-14.5,28.9s3.5,19.4,10.3,25.9c6.6,6.4,15.7,11.9,27.1,16.4l10.7,3.9c7.5,2.7,12.7,5.1,15.5,7.1,2.5,1.7,3.7,4.1,3.7,7.2,0,7.3-6.5,10.9-19.8,10.9s-26.4-3.8-37.2-11.4l-1.7-1.2-11.4,26.9,1,.8c4.3,3.3,11.2,6.1,21.2,8.5,9.7,2.3,19.1,3.5,28.2,3.5,15,0,27.6-3.4,37.4-10.1,10-6.8,15.1-17,15.1-30.2s-3.1-17.8-9.1-24.1c-5.9-6.1-15-11.6-27.1-16.3Z" class="cls-2"></path>
    <path d="M3110.3,814.9h0c-10.4-6.1-22.5-9.2-36.2-9.2s-25.8,3.1-36.3,9.2c-10.5,6.1-18.6,14.5-24.2,24.9-5.6,10.4-8.4,22.1-8.4,34.6s2.9,24.4,8.6,34.9c5.7,10.5,13.9,18.8,24.4,24.9,10.4,6.1,22.6,9.2,36,9.2s25.5-3.1,35.9-9.2c10.4-6.1,18.5-14.5,24.2-24.9,5.7-10.4,8.6-22.2,8.6-34.9s-2.8-24.1-8.4-34.6c-5.6-10.5-13.7-18.9-24.1-24.9ZM3099.1,904.1c-5.9,7.6-13.9,11.3-24.2,11.3s-18.6-3.8-25.2-11.5c-6.6-7.7-9.9-17.5-9.9-28.9s3.1-21.8,9.3-29.6c6.1-7.8,14-11.6,24.2-11.6s18.8,3.9,25.2,11.8c6.4,7.9,9.7,17.8,9.7,29.5s-3,21.4-9,29.1h0Z" class="cls-2"></path>
    <rect height="208.5" width="33.3" y="732.1" x="3150.2" class="cls-2"></rect>
    <path d="M3300.8,826.2c-1.6-2.2-3.7-4.4-6.3-6.5-4.6-3.9-10.3-7.3-16.9-9.9-6.7-2.7-13.9-4-21.6-4-13.1,0-24.6,2.9-34.4,8.6-9.7,5.7-17.3,13.8-22.6,24.1-5.2,10.2-7.9,22.3-7.9,35.9s3,26.1,9,36.4c6,10.4,14.1,18.5,24.1,24.1,10,5.6,21,8.5,32.8,8.5s20.5-2.7,29.1-7.9c6.4-3.9,11.4-8.3,14.9-13.2l.5,18.3h31.8v-131.5h-32.1l-.4,17.1ZM3293.3,854c3.2,6,4.8,13,4.8,20.7v2c0,11.4-3.5,20.7-10.4,27.7-6.9,7-15.5,10.5-25.6,10.5s-20.4-3.7-26.5-11c-6.1-7.4-9.2-17.2-9.2-29.2s3.2-21.5,9.4-28.9c6.1-7.3,15-11,26.3-11s12.6,1.7,18.1,5.1c5.5,3.4,9.9,8.1,13.1,14.1Z" class="cls-2"></path>
    <path d="M3449.2,826.2c-1.7-2.2-3.8-4.4-6.4-6.6-4.7-3.9-10.4-7.2-17.1-9.9-6.7-2.7-13.9-4-21.6-4-12.9,0-24.4,2.9-34.1,8.6-9.7,5.7-17.3,13.9-22.6,24.3-5.2,10.3-7.9,22.3-7.9,35.5s2.8,26.1,8.3,36.5c5.5,10.5,13.2,18.6,22.7,24.3,9.5,5.6,20.1,8.5,31.6,8.5s20.9-2.5,29.8-7.5c6.9-3.8,12.4-8.5,16.4-13.8v17c-.2,15-3.9,25.1-11,30.2-7.3,5.2-16.5,7.8-27.2,7.8s-27.3-3.9-39.3-11.7l-2-1.3-7.6,31.5,1.1.6c4.1,2.3,10.6,4.7,20.1,7.4,9.3,2.6,18.9,4,28.5,4s22.3-1.5,31.1-4.5c8.9-3,16.3-7.6,22-13.6,5.7-6,10.1-13.4,12.9-22,2.8-8.5,4.3-18.4,4.3-29.4v-129h-31.8l-.4,17.2ZM3441.7,853.7c3.2,6,4.8,13,4.8,20.7v2c0,11.4-3.5,20.7-10.4,27.7-6.9,7-15.5,10.5-25.6,10.5s-20.4-3.7-26.5-11c-6.1-7.4-9.2-17.2-9.2-29.2s3.2-21.5,9.4-28.9c6.1-7.3,15-11,26.3-11s12.6,1.7,18.1,5.1c5.5,3.4,9.9,8.1,13.1,14.1Z" class="cls-2"></path>
    <path d="M3617.8,839.8h0c-5.6-10.5-13.7-18.9-24.1-24.9-10.4-6.1-22.5-9.2-36.2-9.2s-25.8,3.1-36.3,9.2c-10.5,6.1-18.6,14.5-24.2,24.9-5.6,10.4-8.4,22.1-8.4,34.6s2.9,24.4,8.6,34.9c5.7,10.5,13.9,18.8,24.4,24.9,10.4,6.1,22.6,9.2,36,9.2s25.5-3.1,35.9-9.2c10.4-6.1,18.5-14.5,24.2-24.9,5.7-10.4,8.6-22.2,8.6-34.9s-2.8-24.1-8.4-34.6ZM3582.6,904.1c-5.9,7.6-13.9,11.3-24.2,11.3s-18.6-3.8-25.2-11.5c-6.6-7.7-9.9-17.5-9.9-28.9s3.1-21.8,9.3-29.6c6.1-7.8,14-11.6,24.2-11.6s18.8,3.9,25.2,11.8c6.4,7.9,9.7,17.8,9.7,29.5s-3,21.4-9,29.1h0Z" class="cls-2"></path>
  </g>
</svg>