<svg xmlns="http://www.w3.org/2000/svg" fill="none" viewBox="0 0 176 63" height="63" width="176">
<path fill="#FFA800" d="M15.1219 29.8889H15.1168C13.6387 29.3372 13.2666 29.2122 13.1322 29.1758C11.3647 28.5564 10.0779 27.9786 9.30263 27.4685C8.6101 27.0104 8.27418 26.3545 8.27418 25.4644C8.27418 24.5743 8.27417 23.1116 12.3828 23.1116C16.4915 23.1116 15.1219 23.3094 16.2848 23.6998C17.4269 24.085 18.259 24.5327 18.7655 25.0428L19.1634 25.4436L22.0007 19.14L21.7268 18.9578C20.8069 18.3383 19.4735 17.8282 17.7629 17.4326C16.0729 17.0422 14.3261 16.8496 12.5741 16.8496C9.00288 16.8496 6.09839 17.6356 3.95362 19.1868C1.7675 20.7692 0.656353 22.9867 0.656353 25.7923C0.656353 28.598 1.44191 30.2273 2.99235 31.7212C4.50144 33.1735 6.56869 34.4384 9.13725 35.469L11.5559 36.3696C13.2511 36.9942 14.4346 37.5356 15.0806 37.9832C15.6491 38.3788 15.9282 38.9202 15.9282 39.6385C15.9282 41.3094 14.4604 42.1214 11.4371 42.1214C8.41371 42.1214 5.43687 41.2417 2.97684 39.5136L2.58406 39.2377L0 45.3852L0.237734 45.5674C1.21968 46.3325 2.79079 46.9728 5.03893 47.5194C7.23538 48.0555 9.38532 48.3262 11.4371 48.3262C14.8377 48.3262 17.6957 47.5506 19.9231 46.0254C22.2023 44.4638 23.3548 42.1475 23.3548 39.1284C23.3548 36.1093 22.6571 35.0526 21.2824 33.6212C19.9386 32.2261 17.8662 30.9716 15.1271 29.8889H15.1219Z"></path>
<path fill="#FFA800" d="M47.7075 18.9422C45.356 17.5523 42.5911 16.8444 39.4954 16.8444C36.3997 16.8444 33.6244 17.5471 31.2522 18.9422C28.8749 20.332 27.0247 22.2527 25.7533 24.6472C24.482 27.0312 23.8359 29.6912 23.8359 32.5541C23.8359 35.417 24.4923 38.1394 25.7843 40.5286C27.0815 42.9231 28.9421 44.8386 31.3142 46.2285C33.6864 47.6183 36.4358 48.3262 39.4954 48.3262C42.5549 48.3262 45.294 47.6235 47.6455 46.2285C49.997 44.8386 51.8472 42.9179 53.1444 40.5286C54.4364 38.1394 55.0928 35.4586 55.0928 32.5541C55.0928 29.6495 54.4468 27.0364 53.1754 24.6472C51.8989 22.2527 50.059 20.332 47.7075 18.9422ZM45.1803 39.3314C43.8314 41.0752 42.0329 41.9237 39.6866 41.9237C37.3403 41.9237 35.4591 41.0596 33.9603 39.2846C32.4667 37.5147 31.707 35.2921 31.707 32.679C31.707 30.0659 32.415 27.6923 33.8104 25.9017C35.2007 24.111 36.9992 23.2418 39.3041 23.2418C41.6091 23.2418 43.5627 24.1215 45.0201 25.9381C46.4775 27.7496 47.2166 30.0191 47.2166 32.679C47.2166 35.3389 46.5292 37.5824 45.1751 39.3314H45.1803Z"></path>
<path fill="#FFA800" d="M64.3332 0H56.7773V47.6859H64.3332V0Z"></path>
<path fill="#FFA800" d="M90.9647 21.5292C90.5926 21.0295 90.1172 20.5298 89.5383 20.0353C88.4944 19.14 87.2023 18.3748 85.6932 17.7658C84.1738 17.1515 82.5252 16.8444 80.799 16.8444C77.8274 16.8444 75.2019 17.5055 73.0003 18.812C70.7935 20.1238 69.0674 21.9769 67.8787 24.3297C66.6952 26.6721 66.0957 29.4361 66.0957 32.5489C66.0957 35.6617 66.7831 38.5142 68.1423 40.8826C69.5015 43.251 71.3414 45.1041 73.6102 46.3898C75.879 47.6703 78.3803 48.321 81.0523 48.321C83.7242 48.321 85.6984 47.712 87.652 46.5095C89.1042 45.6142 90.2309 44.6044 91.0268 43.4905L91.1301 47.6807H98.3603V17.6096H91.0681L90.9647 21.524V21.5292ZM89.2593 27.8849C89.988 29.2695 90.3549 30.8571 90.3549 32.6165V33.0642C90.3549 35.6669 89.559 37.7958 87.9982 39.3939C86.4323 40.9919 84.4787 41.7987 82.1893 41.7987C79.8998 41.7987 77.5534 40.9555 76.1839 39.2898C74.7937 37.6032 74.0856 35.3597 74.0856 32.6165C74.0856 29.8733 74.7988 27.6923 76.2097 26.011C77.6051 24.3453 79.6155 23.502 82.1841 23.502C84.7526 23.502 85.0472 23.8924 86.2927 24.6576C87.5331 25.4228 88.5306 26.5107 89.2593 27.8901V27.8849Z"></path>
<path fill="#FFA800" d="M124.66 21.5344C124.283 21.0347 123.792 20.5298 123.203 20.0301C122.138 19.1348 120.836 18.3748 119.327 17.7658C117.807 17.1515 116.158 16.8444 114.432 16.8444C111.502 16.8444 108.902 17.5055 106.696 18.812C104.484 20.1238 102.763 21.9925 101.574 24.3661C100.391 26.7293 99.791 29.4621 99.791 32.4864C99.791 35.5107 100.427 38.4517 101.672 40.8357C102.928 43.2302 104.659 45.0937 106.825 46.3846C108.99 47.6703 111.399 48.321 113.993 48.321C116.587 48.321 118.737 47.7484 120.768 46.6136C122.34 45.7392 123.59 44.6773 124.5 43.454V47.3528C124.459 50.7779 123.621 53.0995 122.004 54.2499C120.345 55.4315 118.267 56.0301 115.828 56.0301C113.388 56.0301 109.626 55.1296 106.913 53.3493L106.453 53.0474L104.737 60.2516L104.99 60.3973C105.915 60.9283 107.404 61.4853 109.543 62.0943C111.662 62.6981 113.838 63 116.014 63C118.19 63 121.079 62.6564 123.079 61.9746C125.094 61.2874 126.779 60.2412 128.081 58.8566C129.384 57.4824 130.371 55.7906 131.022 53.8282C131.668 51.8814 131.994 49.6171 131.994 47.0977V17.6096H124.763L124.66 21.5344ZM122.96 27.8224C123.688 29.2071 124.055 30.7999 124.055 32.5541V33.0017C124.055 35.6044 123.26 37.7334 121.699 39.3314C120.133 40.9294 118.179 41.7363 115.89 41.7363C113.6 41.7363 111.254 40.893 109.884 39.2273C108.494 37.5408 107.786 35.2973 107.786 32.5541C107.786 29.8109 108.499 27.6298 109.91 25.9433C111.306 24.2776 113.316 23.4344 115.885 23.4344C118.453 23.4344 118.748 23.8248 119.993 24.5899C121.234 25.3551 122.231 26.443 122.96 27.8224Z"></path>
<path fill="#FFA800" d="M162.951 24.6472C161.674 22.2527 159.834 20.332 157.483 18.9422C155.131 17.5523 152.366 16.8444 149.271 16.8444C146.175 16.8444 143.4 17.5471 141.028 18.9422C138.65 20.332 136.8 22.2527 135.529 24.6472C134.257 27.0312 133.611 29.6912 133.611 32.5541C133.611 35.417 134.268 38.1394 135.56 40.5286C136.857 42.9231 138.717 44.8386 141.09 46.2285C143.462 47.6183 146.211 48.3262 149.271 48.3262C152.33 48.3262 155.069 47.6235 157.421 46.2285C159.772 44.8386 161.623 42.9179 162.92 40.5286C164.212 38.1394 164.868 35.4586 164.868 32.5541C164.868 29.6495 164.222 27.0364 162.951 24.6472ZM154.956 39.3314C153.607 41.0752 151.808 41.9237 149.462 41.9237C147.116 41.9237 145.234 41.0596 143.736 39.2846C142.242 37.5147 141.482 35.2921 141.482 32.679C141.482 30.0659 142.19 27.6923 143.586 25.9017C144.976 24.111 146.775 23.2418 149.08 23.2418C151.385 23.2418 153.338 24.1215 154.795 25.9381C156.253 27.7496 156.992 30.0191 156.992 32.679C156.992 35.3389 156.305 37.5824 154.951 39.3314H154.956Z"></path>
<path fill="#FFA800" d="M169.055 16.4956H169.572L170.89 18.5622H173.071L171.386 16.277C171.923 16.1209 172.296 15.8606 172.492 15.5014C172.704 15.1162 172.807 14.6582 172.807 14.1324C172.807 13.6067 172.569 12.8259 172.099 12.4355C171.639 12.0503 170.947 11.8577 170.037 11.8577H167.35V18.5622H169.04V16.4956H169.055ZM169.055 13.1851H169.949C170.357 13.1851 170.642 13.2683 170.802 13.4349C170.962 13.6015 171.04 13.8461 171.04 14.1741C171.04 14.502 170.962 14.731 170.807 14.8716C170.647 15.0173 170.347 15.0902 169.918 15.0902H169.055V13.1851Z"></path>
<path fill="#FFA800" d="M175.199 12.0711C174.662 11.1394 173.928 10.4002 173.008 9.87447C172.093 9.35394 171.07 9.08847 169.964 9.08847C168.858 9.08847 167.809 9.35394 166.873 9.87447C165.933 10.395 165.178 11.1342 164.625 12.0711C164.072 13.0029 163.793 14.07 163.793 15.236C163.793 16.4019 164.077 17.4742 164.635 18.4268C165.194 19.3794 165.948 20.1342 166.889 20.6703C167.824 21.2117 168.868 21.4823 169.979 21.4823C171.09 21.4823 172.108 21.2065 173.023 20.6703C173.938 20.129 174.672 19.3742 175.204 18.4268C175.731 17.4794 176 16.4019 176 15.2412C176 14.0804 175.726 13.0133 175.194 12.0763L175.199 12.0711ZM169.969 10.2805C170.842 10.2805 171.649 10.4939 172.372 10.9103C173.09 11.3268 173.669 11.9202 174.093 12.6749C174.512 13.4297 174.729 14.2886 174.729 15.236C174.729 16.1833 174.517 17.0526 174.093 17.823C173.674 18.5934 173.096 19.2024 172.372 19.6344C171.654 20.0665 170.847 20.2903 169.974 20.2903C169.101 20.2903 168.279 20.0717 167.54 19.6344C166.796 19.2024 166.201 18.5882 165.762 17.823C165.323 17.0526 165.106 16.1833 165.106 15.2412C165.106 14.299 165.323 13.4349 165.757 12.6801C166.186 11.9306 166.78 11.3372 167.524 10.9155C168.269 10.4991 169.09 10.2857 169.974 10.2857L169.969 10.2805Z"></path>
</svg>
